<svg xmlns="http://www.w3.org/2000/svg" width="33" height="32" fill="none"><path fill="#27F090" d="M32.56 16c0 8.837-7.163 16-16 16C7.725 32 .558 24.837.558 16s7.164-16 16-16c8.837 0 16 7.163 16 16"/><path fill="#121415" d="M12.996 15.94c-1.19 0-2.154-1.236-2.154-2.756 0-1.087.49-2.021 1.203-2.472a2.41 2.41 0 0 0-1.127-.285c-2.02 0-3.661 2.644-3.661 5.904s1.64 5.905 3.661 5.905 3.662-2.644 3.662-5.905c0-.404-.027-.801-.073-1.186-.388.49-.921.792-1.511.792m11.378.003c-1.19 0-2.154-1.236-2.154-2.756 0-1.064.47-1.982 1.156-2.442a2.434 2.434 0 0 0-1.176-.315c-2.021 0-3.661 2.644-3.661 5.904s1.64 5.905 3.661 5.905 3.661-2.644 3.661-5.905c0-.37-.023-.735-.063-1.086-.38.43-.878.695-1.424.695Z"/></svg>